<svg xmlns="http://www.w3.org/2000/svg" viewBox="0 0 600 400">
  <defs>
    <linearGradient id="sky" x1="0" y1="0" x2="0" y2="1">
      <stop offset="0%" stop-color="#3a2258"/>
      <stop offset="45%" stop-color="#9a4a5a"/>
      <stop offset="75%" stop-color="#e08a4a"/>
      <stop offset="100%" stop-color="#f4c46a"/>
    </linearGradient>
    <radialGradient id="sun" cx="50%" cy="50%" r="50%">
      <stop offset="0%" stop-color="#fff3c4"/>
      <stop offset="60%" stop-color="#f7b23b"/>
      <stop offset="100%" stop-color="#e0793a"/>
    </radialGradient>
  </defs>
  <rect width="600" height="400" fill="url(#sky)"/>
  <circle cx="300" cy="230" r="70" fill="url(#sun)"/>
  <path d="M0,260 L60,190 L120,250 L180,170 L230,260 L300,150 L360,255 L420,180 L480,245 L540,190 L600,255 L600,400 L0,400 Z" fill="#241a2e" opacity="0.85"/>
  <path d="M0,300 L80,260 L160,300 L240,255 L320,300 L400,265 L480,300 L560,270 L600,300 L600,400 L0,400 Z" fill="#150f1c"/>
  <g fill="#1a1220" opacity="0.7">
    <polygon points="80,400 95,340 110,400"/>
    <polygon points="140,400 150,360 160,400"/>
    <polygon points="470,400 485,350 500,400"/>
  </g>
  <g fill="#2c2038" opacity="0.6">
    <path d="M20,90 q15,-10 30,0 q15,-10 30,0" stroke="#2c2038" stroke-width="3" fill="none"/>
    <path d="M480,60 q15,-10 30,0 q15,-10 30,0" stroke="#2c2038" stroke-width="3" fill="none"/>
  </g>
</svg>
